<?xml version="1.0" encoding="UTF-8"?>
<svg id="Layer_2" data-name="Layer 2" xmlns="http://www.w3.org/2000/svg" viewBox="0 0 454.69 214.52">
  <defs>
    <style>
      .cls-1 {
        fill: #fff;
      }
    </style>
  </defs>
  <g id="Layer_1-2" data-name="Layer 1">
    <path class="cls-1" d="m214.3,87.84v19.5c0,29.49-10.48,54.7-31.43,75.65-20.95,20.95-46.22,31.43-75.8,31.43s-54.7-10.48-75.65-31.43C10.48,162.04,0,136.82,0,107.33S10.48,52.49,31.43,31.54C52.38,10.59,77.59.11,107.08.11c27.06,0,50.73,9.02,71,27.06l-39.14,39.14c-9.41-7.27-20.03-10.91-31.86-10.91-14.26,0-26.48,5.09-36.66,15.28-10.18,10.09-15.28,22.31-15.28,36.66s5.09,26.48,15.28,36.66c10.18,10.18,22.4,15.28,36.66,15.28,10.86,0,20.71-3.1,29.53-9.31,8.73-6.01,15.03-13.92,18.91-23.71h-44.52v-38.41h103.3Z"/>
    <g>
      <path class="cls-1" d="m366.02,1.8c-29.17-5.16-55.89.76-80.11,17.72-24.16,16.92-38.81,39.96-43.94,69.14-4.56,25.8-.46,49.68,12.31,71.62l44.8-31.37c-10.23-22.74-3.22-50.23,17.96-65.06,21.16-14.82,49.42-12.02,67.28,5.37l44.78-31.36c-16.25-19.51-37.29-31.53-63.09-36.06Zm29.78,83.8c10.22,22.72,3.2,50.24-17.96,65.06-21.18,14.83-49.43,12-67.28-5.37l-44.82,31.38c16.22,19.47,37.26,31.5,63.1,36.04,29.17,5.16,55.84-.72,80-17.64,24.23-16.96,38.92-40.05,44.05-69.22,4.57-25.83.47-49.71-12.28-71.62l-44.8,31.37Z"/>
      <circle class="cls-1" cx="347.43" cy="107.26" r="36.12"/>
    </g>
  </g>
</svg>