<?xml version="1.0" encoding="utf-8"?>
<!-- Generator: Adobe Illustrator 22.0.1, SVG Export Plug-In . SVG Version: 6.00 Build 0)  -->
<svg version="1.1" id="Layer_1" xmlns="http://www.w3.org/2000/svg" xmlns:xlink="http://www.w3.org/1999/xlink" x="0px" y="0px"
	 viewBox="0 0 271.4 56.4" style="enable-background:new 0 0 271.4 56.4;" xml:space="preserve">
<style type="text/css">
	.st0{fill:#111111;}
</style>
<g>
	<g>
		<path class="st0" d="M56.4,23.1v5.1c0,7.8-2.8,14.4-8.3,19.9s-12.2,8.3-19.9,8.3c-7.8,0-14.4-2.8-19.9-8.3S0,36,0,28.2
			c0-7.8,2.8-14.4,8.3-19.9S20.4,0,28.2,0c7.1,0,13.3,2.4,18.7,7.1L36.5,17.4c-2.5-1.9-5.3-2.9-8.4-2.9c-3.8,0-7,1.3-9.6,4
			c-2.7,2.7-4,5.9-4,9.6c0,3.8,1.3,7,4,9.6s5.9,4,9.6,4c2.9,0,5.4-0.8,7.8-2.4c2.3-1.6,4-3.7,5-6.2H29.2V23.1H56.4z"/>
	</g>
	<g>
		<g>
			<path class="st0" d="M96.4,0.5c-7.7-1.4-14.7,0.2-21.1,4.7c-6.4,4.5-10.2,10.5-11.6,18.2c-1.2,6.8-0.1,13.1,3.2,18.8l11.8-8.3
				c-2.7-6-0.8-13.2,4.7-17.1c5.6-3.9,13-3.2,17.7,1.4L113,10C108.7,4.8,103.2,1.7,96.4,0.5z M104.2,22.5c2.7,6,0.8,13.2-4.7,17.1
				c-5.6,3.9-13,3.2-17.7-1.4L70,46.5c4.3,5.1,9.8,8.3,16.6,9.5c7.7,1.4,14.7-0.2,21-4.6c6.4-4.5,10.2-10.5,11.6-18.2
				c1.2-6.8,0.1-13.1-3.2-18.8L104.2,22.5z"/>
		</g>
		<circle class="st0" cx="91.5" cy="28.2" r="9.5"/>
	</g>
	<g>
		<path class="st0" d="M170,53.2h-13.5V33H141v20.2h-13.5V3.6H141V22h15.6V3.6H170V53.2z"/>
		<path class="st0" d="M222.8,3.6v29.8c0,6.5-1.8,11.5-5.5,15.1c-3.7,3.6-9,5.3-15.9,5.3c-6.8,0-12-1.7-15.6-5.2s-5.4-8.4-5.4-14.9
			V3.6h13.5v29.1c0,3.5,0.7,6,2,7.6c1.3,1.6,3.2,2.4,5.8,2.4c2.7,0,4.7-0.8,6-2.4c1.2-1.6,1.8-4.1,1.8-7.7v-29H222.8z"/>
		<path class="st0" d="M233.2,3.6h17.3c6.7,0,11.7,1,15,3c3.3,2,4.9,5.1,4.9,9.3c0,2.8-0.7,5.2-2.1,7.1s-3.3,3.2-5.6,3.8v0.3
			c3.1,0.8,5.3,2.2,6.7,4.1c1.4,1.9,2.1,4.4,2.1,7.4c0,4.5-1.7,8-5.1,10.6c-3.4,2.6-8,3.9-13.8,3.9h-19.3V3.6z M246.6,22.6h4
			c1.9,0,3.4-0.4,4.5-1.2c1.1-0.8,1.6-2,1.6-3.5c0-2.8-2.1-4.2-6.3-4.2h-3.8V22.6z M246.6,32.4v10.4h4.7c4.2,0,6.3-1.8,6.3-5.3
			c0-1.6-0.6-2.9-1.7-3.8c-1.1-0.9-2.7-1.3-4.9-1.3H246.6z"/>
	</g>
</g>
</svg>
